<svg xmlns="http://www.w3.org/2000/svg" viewBox="0 0 100 120" width="100" height="120" fill="none" stroke="#1a1a1a" stroke-width="3" stroke-linecap="round" stroke-linejoin="round">
  <!-- Outer ear -->
  <path d="M55 15 Q80 15 80 45 Q80 70 60 80 Q55 82 52 90 Q50 98 44 100 Q36 102 34 94 Q32 86 38 82" />
  <!-- Inner ear canal -->
  <path d="M48 30 Q62 30 62 48 Q62 62 52 68" />
  <!-- Inner curl -->
  <path d="M44 42 Q50 38 54 44 Q56 50 50 56" />
  <!-- Cotton swab stick going into ear -->
  <line x1="10" y1="72" x2="46" y2="54" stroke-width="2.5"/>
  <!-- Swab tip (inner) -->
  <ellipse cx="47" cy="53" rx="5" ry="3" transform="rotate(-25 47 53)" fill="#1a1a1a" stroke="none"/>
  <!-- Swab tip (outer) -->
  <ellipse cx="9" cy="73" rx="5" ry="3" transform="rotate(-25 9 73)" stroke-width="2" fill="white"/>
</svg>
